<?xml version="1.0" encoding="UTF-8" standalone="no" ?>
<!DOCTYPE svg PUBLIC "-//W3C//DTD SVG 1.1//EN" "http://www.w3.org/Graphics/SVG/1.1/DTD/svg11.dtd">
<svg xmlns="http://www.w3.org/2000/svg" xmlns:xlink="http://www.w3.org/1999/xlink" version="1.1" width="1280" height="1024" viewBox="0 0 1280 1024" xml:space="preserve">
<desc>Created with Fabric.js 5.3.0</desc>
<defs>
</defs>
<g transform="matrix(1 0 0 1 640 512)" id="background-logo"  >
<rect style="stroke: none; stroke-width: 0; stroke-dasharray: none; stroke-linecap: butt; stroke-dashoffset: 0; stroke-linejoin: miter; stroke-miterlimit: 4; fill: rgb(18,25,27); fill-rule: nonzero; opacity: 1;"  paint-order="stroke"  x="-640" y="-512" rx="0" ry="0" width="1280" height="1024" />
</g>
<g transform="matrix(1.9211538461538462 0 0 1.9211538461538462 640.7929553787792 749.1932527849767)" id="text-logo"  >
<g style=""  paint-order="stroke"   >
		<g transform="matrix(1 0 0 1 0 0)" id="text-logo-path-0"  >
<linearGradient id="SVGID_318394" gradientUnits="userSpaceOnUse" gradientTransform="matrix(1 0 0 1 1.3199999999999932 -34.3)"  x1="-1.2127526168822556" y1="-8.777859999999976" x2="-1.2127526168822556" y2="46.222140000000024">
<stop offset="0%" style="stop-color:rgb(23,234,217);stop-opacity: 1"/>
<stop offset="100%" style="stop-color:rgb(96,120,234);stop-opacity: 1"/>
</linearGradient>
<path style="stroke: none; stroke-width: 0.5212765957446801; stroke-dasharray: none; stroke-linecap: butt; stroke-dashoffset: 0; stroke-linejoin: miter; stroke-miterlimit: 4; fill: url(#SVGID_318394); fill-rule: nonzero; opacity: 1;"  paint-order="stroke"  transform=" translate(-180, 17.15)" d="M 1.32 -26.17 L 8.67 -26.17 L 8.67 0 L 18.38 0 L 18.38 -26.17 L 25.73 -26.17 L 25.73 -34.3 L 1.32 -34.3 Z M 38.66 0 L 48.36 0 L 48.36 -13.13 L 58.46 -13.13 L 58.46 0 L 68.16 0 L 68.16 -34.3 L 58.46 -34.3 L 58.46 -21.27 L 48.36 -21.27 L 48.36 -34.3 L 38.66 -34.3 Z M 81.05 0 L 91.14 0 L 93.44 -4.9 L 105.59 -4.9 L 107.9 0 L 117.99 0 L 103.29 -34.3 L 95.75 -34.3 Z M 95.06 -12.05 L 99.52 -23.08 L 103.98 -12.05 Z M 154.4 0 L 159.15 0 L 159.15 -34.3 L 150.43 -34.3 L 150.43 -17.93 L 135.49 -34.3 L 130.73 -34.3 L 130.73 0 L 139.45 0 L 139.45 -16.61 Z M 171.84 0 L 181.94 0 L 184.24 -4.9 L 196.39 -4.9 L 198.7 0 L 208.79 0 L 194.09 -34.3 L 186.54 -34.3 Z M 185.86 -12.05 L 190.32 -23.08 L 194.78 -12.05 Z M 244.17 0 L 255.05 0 L 240.54 -18.08 L 253.18 -34.3 L 243.87 -34.25 L 231.43 -17.39 L 231.43 -34.3 L 221.73 -34.3 L 221.73 0 L 231.43 0 L 231.43 -16.91 Z M 267.88 0 L 277.59 0 L 277.59 -11.81 L 279.74 -11.81 L 288.22 0 L 298.7 0 L 289.25 -13.23 C 293.31 -15.04 295.81 -18.47 295.81 -23.03 C 295.81 -29.99 290.52 -34.3 282.34 -34.3 L 267.88 -34.3 Z M 277.59 -18.42 L 277.59 -26.66 L 282.24 -26.66 C 284.59 -26.66 286.26 -25.19 286.26 -22.54 C 286.26 -19.89 284.59 -18.42 282.24 -18.42 Z M 311.69 0 L 321.39 0 L 321.39 -34.3 L 311.69 -34.3 Z M 334.28 -26.17 L 341.63 -26.17 L 341.63 0 L 351.33 0 L 351.33 -26.17 L 358.68 -26.17 L 358.68 -34.3 L 334.28 -34.3 Z" stroke-linecap="round" />
</g>
</g>
</g>
<g transform="matrix(1.9211538461538462 0 0 1.9211538461538462 637.3901547055242 818.9613544219334)" id="tagline-c349782e-9ba2-4d7a-a88f-99e086d1d059-logo"  >
<g style=""  paint-order="stroke"   >
		<g transform="matrix(1 0 0 1 0 0)" id="tagline-c349782e-9ba2-4d7a-a88f-99e086d1d059-logo-path-0"  >
<path style="stroke: none; stroke-width: 0.311820258251175; stroke-dasharray: none; stroke-linecap: butt; stroke-dashoffset: 0; stroke-linejoin: miter; stroke-miterlimit: 4; fill: rgb(83,113,255); fill-rule: nonzero; opacity: 1;"  paint-order="stroke"  transform=" translate(-77.39, 5.720000000000001)" d="M 1.98 -3.29 L 0.65 -1.61 C 1.58 -0.47 2.81 0.19 4.37 0.19 C 7.35 0.19 8.83 -1.29 8.83 -4.94 L 8.83 -13.3 L 6.59 -13.3 L 6.59 -5.02 C 6.59 -2.66 5.51 -2.13 4.37 -2.13 C 3.29 -2.13 2.74 -2.55 1.98 -3.29 Z M 30.15 0 L 24.59 -13.3 L 22.27 -13.3 L 16.7 0 L 18.94 0 L 20.23 -3.08 L 26.54 -3.08 L 27.84 0 Z M 21.17 -5.32 L 23.39 -10.64 L 25.61 -5.32 Z M 48.28 -13.3 L 48.28 -4.18 L 40.66 -13.3 L 38.66 -13.3 L 38.66 0 L 40.91 0 L 40.91 -9.52 L 48.72 0 L 50.52 0 L 50.52 -13.3 Z M 64.73 -2.24 L 62.13 -2.24 L 62.13 -11.06 L 64.73 -11.06 C 67.62 -11.06 69.52 -9.46 69.52 -6.65 C 69.52 -3.84 67.62 -2.24 64.73 -2.24 Z M 59.85 -13.3 L 59.85 0 L 64.81 0 C 68.93 0 71.84 -2.64 71.84 -6.65 C 71.84 -10.66 68.93 -13.3 64.81 -13.3 Z M 80.45 -2.55 L 80.07 1.86 L 81.43 1.86 L 82.95 -2.55 Z M 106.65 -2.24 L 104.04 -2.24 L 104.04 -11.06 L 106.65 -11.06 C 109.53 -11.06 111.43 -9.46 111.43 -6.65 C 111.43 -3.84 109.53 -2.24 106.65 -2.24 Z M 101.76 -13.3 L 101.76 0 L 106.72 0 C 110.85 0 113.75 -2.64 113.75 -6.65 C 113.75 -10.66 110.85 -13.3 106.72 -13.3 Z M 122.55 -13.3 L 122.55 0 L 132.54 0 L 132.54 -2.24 L 124.83 -2.24 L 124.83 -5.55 L 131.08 -5.55 L 131.08 -7.79 L 124.83 -7.79 L 124.83 -11.06 L 132.54 -11.06 L 132.54 -13.3 Z M 140.64 -13.3 L 146.2 0 L 148.56 0 L 154.13 -13.3 L 151.77 -13.3 L 147.38 -2.79 L 142.99 -13.3 Z" stroke-linecap="round" />
</g>
</g>
</g>
<g transform="matrix(1.9211538461538462 0 0 1.9211538461538462 628.8295939884121 436.3197461031454)" id="tagline-83fdfb2a-8044-4ad8-b129-1c6be14b1c43-logo"  >
<g style=""  paint-order="stroke"   >
		<g transform="matrix(1 0 0 1 0 0)" id="tagline-83fdfb2a-8044-4ad8-b129-1c6be14b1c43-logo-path-0"  >
<linearGradient id="SVGID_318395" gradientUnits="userSpaceOnUse" gradientTransform="matrix(1 0 0 1 4.599999999999994 -214.9)"  x1="-4.60499999999999" y1="-54.99597999999996" x2="-4.60499999999999" y2="292.00402">
<stop offset="0%" style="stop-color:rgb(91,36,122);stop-opacity: 1"/>
<stop offset="100%" style="stop-color:rgb(27,206,223);stop-opacity: 1"/>
</linearGradient>
<path style="stroke: rgb(255,255,255); stroke-width: 0; stroke-dasharray: none; stroke-linecap: butt; stroke-dashoffset: 0; stroke-linejoin: miter; stroke-miterlimit: 4; fill: url(#SVGID_318395); fill-rule: nonzero; opacity: 1;"  paint-order="stroke"  transform=" translate(-215.04999999999998, 105.915)" d="M 215.82 -159.64 L 215.82 -214.9 L 4.6 -214.9 L 4.6 -159.64 L 76.44 -159.64 L 76.44 0 L 143.98 0 L 143.98 -159.64 Z M 322.35 3.07 C 380.99 3.07 425.5 -25.79 425.5 -85.04 L 425.5 -214.9 L 357.96 -214.9 L 357.96 -93.94 C 357.96 -71.22 351.82 -52.19 322.35 -52.19 C 296.87 -52.19 287.04 -65.39 287.04 -85.04 L 219.2 -85.04 C 219.2 -26.09 263.71 3.07 322.35 3.07 Z" stroke-linecap="round" />
</g>
</g>
</g>
</svg>